# File created by Blade
# Date/Time:  Wed Jan 21 17:41:14 2015
# Frame Rate: 120.000 fps
#------------------------------------------------------
:FULLY-SPECIFIED
:DEGREES
1636
root 15.918929 29.197682 -21.332923 -576.066312 78.313832 -602.705931
Spine -24.169960 -5.199797 -1.423356
Head -8.070930 0.065283 -6.312570
LeftShoulder -10.177120 -47.486607 29.051216
LeftArm 47.232050 -29.613022 4.379350
LeftForeArm -23.197105 -0.000000 -1.912551
LeftHand 0.171542 -0.000000 27.234101
LeftHandThumb1 -26.253704 0.000000 33.147579
RightShoulder -7.682356 15.004826 -31.895971
RightArm 38.961392 58.100112 -10.255982
RightForeArm -32.928730 -0.000000 11.641191
RightHand -10.151764 -0.000000 -23.487638
RightHandThumb1 -24.326973 -0.000000 -32.862282
LeftUpLeg 7.048062 10.061206 -9.766359
LeftLeg 2.516865 -0.000000 -0.000000
LeftFoot -49.651323 20.039387 -21.748398
LeftToeBase 24.255959 -0.000000 -0.000000
RightUpLeg -77.534242 -0.417534 -10.328316
RightLeg 69.539214 -0.000000 -0.000000
RightFoot -37.613718 -8.040621 21.148054
RightToeBase 24.377761 -0.000000 -0.000000
1637
root 15.866912 29.244529 -21.314930 -577.184144 78.970048 -603.920341
Spine -24.322291 -4.816536 -1.059953
Head -8.272055 0.337590 -6.340660
LeftShoulder -10.487747 -47.609492 29.370610
LeftArm 47.028122 -29.768469 4.456835
LeftForeArm -23.218162 0.000000 -1.956506
LeftHand 0.201076 -0.000000 27.696932
LeftHandThumb1 -26.253704 0.000000 33.147579
RightShoulder -7.787846 15.100618 -31.979147
RightArm 39.085224 58.295417 -9.950582
RightForeArm -33.178920 -0.000000 11.730715
RightHand -10.242145 0.000000 -23.910680
RightHandThumb1 -24.326973 -0.000000 -32.862282
LeftUpLeg 6.877274 10.416218 -9.646519
LeftLeg 2.405540 -0.000000 -0.000000
LeftFoot -49.666438 20.297225 -21.835280
LeftToeBase 24.187538 -0.000000 -0.000000
RightUpLeg -77.599045 0.159671 -9.995990
RightLeg 68.962927 -0.000000 -0.000000
RightFoot -37.412014 -8.246434 21.591120
RightToeBase 23.039959 -0.000000 -0.000000
1638
root 15.816304 29.290672 -21.297689 -578.443982 79.587869 -605.235145
Spine -24.427732 -4.449634 -0.762134
Head -8.435202 0.580866 -6.257078
LeftShoulder -10.723553 -47.568050 29.613857
LeftArm 46.908354 -30.012656 4.608239
LeftForeArm -23.291065 -0.000000 -2.177890
LeftHand 0.215807 0.000000 27.937041
LeftHandThumb1 -26.253704 0.000000 33.147579
RightShoulder -7.841846 15.257475 -31.987707
RightArm 39.003869 58.330164 -9.911503
RightForeArm -33.277626 -0.000000 11.774617
RightHand -10.251160 -0.000000 -24.055865
RightHandThumb1 -24.326973 -0.000000 -32.862282
LeftUpLeg 6.757899 10.734462 -9.528695
LeftLeg 2.289927 -0.000000 -0.000000
LeftFoot -49.681168 20.483375 -21.975041
LeftToeBase 24.132823 -0.000000 -0.000000
RightUpLeg -77.591473 0.727141 -9.691318
RightLeg 68.409585 -0.000000 -0.000000
RightFoot -37.165307 -8.539546 21.903191
RightToeBase 22.572370 -0.000000 -0.000000
1639
root 15.763998 29.335707 -21.276145 -579.846923 80.173131 -606.670040
Spine -24.468133 -4.105435 -0.535159
Head -8.641566 0.930906 -6.160343
LeftShoulder -11.044809 -47.678185 30.004693
LeftArm 46.754590 -30.073912 4.697588
LeftForeArm -23.339698 -0.000000 -2.244166
LeftHand 0.196259 -0.000000 28.383409
LeftHandThumb1 -26.253704 0.000000 33.147579
RightShoulder -7.932343 15.440596 -31.976997
RightArm 39.073733 58.427116 -9.653072
RightForeArm -33.496060 -0.000000 11.788653
RightHand -10.375534 0.000000 -24.245262
RightHandThumb1 -24.326973 -0.000000 -32.862282
LeftUpLeg 6.683124 10.980402 -9.408893
LeftLeg 2.137099 -0.000000 -0.000000
LeftFoot -49.687998 20.703924 -22.099488
LeftToeBase 24.098836 -0.000000 -0.000000
RightUpLeg -77.570998 1.255729 -9.385292
RightLeg 67.852059 -0.000000 -0.000000
RightFoot -37.031653 -8.734996 22.257091
RightToeBase 21.499723 -0.000000 -0.000000
1640
root 15.714350 29.378951 -21.256590 -581.318448 80.745208 -608.116340
Spine -24.486310 -3.767343 -0.248923
Head -8.736976 1.098662 -6.136132
LeftShoulder -11.204574 -47.754943 30.247078
LeftArm 46.462833 -30.023393 4.995602
LeftForeArm -23.516510 -0.000000 -2.382964
LeftHand 0.099686 0.000000 28.654020
LeftHandThumb1 -26.253704 0.000000 33.147579
RightShoulder -7.971014 15.598263 -32.007032
RightArm 39.177475 58.518824 -9.385566
RightForeArm -33.626550 0.000000 11.781454
RightHand -10.388710 -0.000000 -24.342198
RightHandThumb1 -24.326973 -0.000000 -32.862282
LeftUpLeg 6.691914 11.282144 -9.255932
LeftLeg 1.940184 -0.000000 -0.000000
LeftFoot -49.651468 20.909037 -22.182195
LeftToeBase 24.035006 -0.000000 -0.000000
RightUpLeg -77.475039 1.765759 -9.073915
RightLeg 67.312123 -0.000000 -0.000000
RightFoot -36.836303 -9.018602 22.679989
RightToeBase 20.266105 -0.000000 -0.000000
1641
root 15.665285 29.420547 -21.237198 -582.631905 81.243212 -609.360209
Spine -24.454890 -3.463524 -0.001891
Head -8.846297 1.251426 -6.102901
LeftShoulder -11.275055 -47.873504 30.375193
LeftArm 46.356452 -30.142360 5.078410
LeftForeArm -23.485588 -0.000000 -2.558675
LeftHand 0.075980 0.000000 28.781691
LeftHandThumb1 -26.253704 0.000000 33.147579
RightShoulder -8.040433 15.667747 -32.028999
RightArm 39.364040 58.694979 -9.029248
RightForeArm -33.635356 -0.000000 11.766620
RightHand -10.630422 -0.000000 -24.309770
RightHandThumb1 -24.326973 -0.000000 -32.862282
LeftUpLeg 6.722636 11.626841 -9.079054
LeftLeg 1.790660 -0.000000 -0.000000
LeftFoot -49.606374 21.047565 -22.177961
LeftToeBase 24.014087 -0.000000 -0.000000
RightUpLeg -77.319333 2.160378 -8.745321
RightLeg 66.826476 -0.000000 -0.000000
RightFoot -36.612765 -9.277494 22.927055
RightToeBase 19.363663 -0.000000 -0.000000
1642
root 15.614349 29.462050 -21.218512 -584.072649 81.644629 -610.706837
Spine -24.384026 -3.241682 0.152063
Head -8.914072 1.290815 -6.062934
LeftShoulder -11.305803 -48.010981 30.529394
LeftArm 46.055012 -30.116136 5.299294
LeftForeArm -23.532273 -0.000000 -2.537417
LeftHand -0.019814 -0.000000 28.920033
LeftHandThumb1 -26.253704 0.000000 33.147579
RightShoulder -8.074266 15.802013 -31.991341
RightArm 39.508058 58.775276 -8.792860
RightForeArm -33.614534 -0.000000 11.639707
RightHand -10.753416 -0.000000 -24.281130
RightHandThumb1 -24.326973 -0.000000 -32.862282
LeftUpLeg 6.774608 11.896078 -8.964097
LeftLeg 1.649482 -0.000000 -0.000000
LeftFoot -49.557117 21.212395 -22.203834
LeftToeBase 24.032990 -0.000000 -0.000000
RightUpLeg -77.138730 2.458940 -8.449581
RightLeg 66.339049 -0.000000 -0.000000
RightFoot -36.602542 -9.704023 23.268593
RightToeBase 18.361719 -0.000000 -0.000000
1643
root 15.565488 29.502604 -21.205544 -585.339411 81.959126 -611.877252
Spine -24.324536 -3.078970 0.290903
Head -8.969294 1.329336 -6.055738
LeftShoulder -11.342012 -48.172568 30.660516
LeftArm 45.850903 -30.004627 5.489053
LeftForeArm -23.690658 0.000000 -2.675883
LeftHand 0.007641 -0.000000 29.057814
LeftHandThumb1 -26.253704 0.000000 33.147579
RightShoulder -8.123432 15.938093 -32.013070
RightArm 39.680430 58.810494 -8.537817
RightForeArm -33.436990 -0.000000 11.441607
RightHand -10.761065 -0.000000 -24.335871
RightHandThumb1 -24.326973 -0.000000 -32.862282
LeftUpLeg 6.815676 12.124970 -8.886360
LeftLeg 1.539044 -0.000000 -0.000000
LeftFoot -49.506488 21.360708 -22.246590
LeftToeBase 23.941217 -0.000000 -0.000000
RightUpLeg -76.956509 2.631529 -8.169024
RightLeg 65.918225 -0.000000 -0.000000
RightFoot -36.609402 -10.217779 23.655698
RightToeBase 17.794991 -0.000000 -0.000000
